<svg xmlns="http://www.w3.org/2000/svg" width="20" height="20" viewBox="0 0 20 20">
  <g id="Group_50165" data-name="Group 50165" transform="translate(-1392 -162)">
    <g id="Group_50164" data-name="Group 50164" transform="translate(0 0.526)">
      <g id="Page-1" transform="translate(1395 161.474)">
        <g id="_054---EBook" data-name="054---EBook" transform="translate(0)">
          <path id="Shape" d="M12.9,0H2.1A2.228,2.228,0,0,0,0,2.333V17.667A2.228,2.228,0,0,0,2.1,20H12.9A2.228,2.228,0,0,0,15,17.667V2.333A2.228,2.228,0,0,0,12.9,0ZM7.5,19.333Zm6.9-1.667a1.592,1.592,0,0,1-1.5,1.667H2.1A1.592,1.592,0,0,1,.6,17.667V2.333A1.592,1.592,0,0,1,2.1.667H12.9a1.592,1.592,0,0,1,1.5,1.667Z"/>
          <g id="Ellipse_113" data-name="Ellipse 113" transform="translate(6 17)" fill="none" stroke="#000" stroke-width="0.4">
            <circle cx="1.25" cy="1.25" r="1.25" stroke="none"/>
            <circle cx="1.25" cy="1.25" r="1.05" fill="none"/>
          </g>
        </g>
      </g>
      <g id="book_16286362" transform="translate(1397.392 166.837)">
        <path id="Path_80874" data-name="Path 80874" d="M25.2,6.407v5.638c.043-.022.086-.022.13-.043l.194-.065a1.591,1.591,0,0,1,.3-.086l.194-.065c.108-.022.194-.043.3-.065.065-.022.13-.022.194-.043.108-.022.216-.022.324-.043.065,0,.13-.022.194-.022.108,0,.216-.022.324-.022h.713a2.128,2.128,0,0,1,.367.043.368.368,0,0,1,.151.022,4.424,4.424,0,0,1,.518.108V6.083a5.8,5.8,0,0,0-3.91.324Z" transform="translate(-19.8 -5.886)"/>
        <path id="Path_80876" data-name="Path 80876" d="M4.7,6.083v5.659a3.663,3.663,0,0,1,.475-.086c.043,0,.086-.022.13-.022a2.38,2.38,0,0,1,.389-.043H5.78c.151,0,.281-.022.432-.022H6.32a7.712,7.712,0,0,1,.994.086h.065a4.859,4.859,0,0,1,.475.108c.022,0,.043.022.065.022a4.031,4.031,0,0,1,.475.151h.022c.086.022.151.065.238.086V6.407A5.946,5.946,0,0,0,4.7,6.083Z" transform="translate(-3.728 -5.886)"/>
      </g>
    </g>
    <rect id="Rectangle_5437" data-name="Rectangle 5437" width="20" height="20" transform="translate(1392 162)" fill="none"/>
  </g>
</svg>
