<?xml version="1.0" encoding="utf-8"?>
<!-- Generator: Adobe Illustrator 26.3.1, SVG Export Plug-In . SVG Version: 6.00 Build 0)  -->
<svg version="1.1" id="Group_2536" xmlns="http://www.w3.org/2000/svg" xmlns:xlink="http://www.w3.org/1999/xlink" x="0px" y="0px"
	 viewBox="0 0 29 29" style="enable-background:new 0 0 29 29;" xml:space="preserve">
<style type="text/css">
	.st0{fill:#B00020;}
	.st1{fill:#FFFFFF;}
</style>
<circle id="Ellipse_7" class="st0" cx="14.5" cy="14.5" r="14.5"/>
<g id="Group_3191" transform="translate(0 0)">
	<g id="Group_3190" transform="translate(0 0)">
		<path id="Path_1171" class="st1" d="M12.8,12.7c-0.3-1.5-0.8-2.6-2.7-2.6H9.8c0,0.9,0,2,0,2.8v5c0,1,0.4,1.3,1.6,1.4v0.2
			c0,0-2,0-2.5,0c-0.5,0-2.5,0-2.5,0v-0.2C7.7,19.1,8,18.9,8,17.8v-5C8,12,8,11,8,10H7.7c-2.1,0-2.4,1-2.7,2.6H4.8
			c0-0.4,0-1.4,0-1.9c0-0.4,0-0.8,0-1.1C5.4,9.7,6,9.7,6.3,9.7c0.4,0,1.3,0,1.8,0h1.5c0.5,0,1.4,0,1.8,0c0.3,0,0.9,0,1.5-0.1
			c0,0.3,0,0.7,0,1.1c0,0.5,0,1.5,0,1.9L12.8,12.7z"/>
		<path id="Path_1172" class="st1" d="M24.2,19.4c-0.8,0-1.5,0-2.3,0c-0.7,0-1.5,0-2.3,0v-0.2c1.1-0.1,1.4-0.2,1.4-1.4v-3.2
			c-0.7,0-1.5,0-2.2,0c-0.7,0-1.4,0-2.1,0v3.2c0,1.2,0.4,1.3,1.4,1.4v0.2c-0.8,0-1.5,0-2.3,0c-0.8,0-1.5,0-2.3,0v-0.2
			c1-0.1,1.4-0.2,1.4-1.4v-6.5c0-1.2-0.4-1.3-1.4-1.4V9.7c0.8,0,1.5,0,2.3,0c0.8,0,1.5,0,2.3,0v0.2c-1.1,0-1.4,0.2-1.4,1.4V14h1.9
			c0.8,0,1.6,0,2.5,0v-2.7c0-1.2-0.3-1.3-1.4-1.4V9.7c0.7,0,1.5,0,2.3,0c0.8,0,1.5,0,2.3,0v0.2c-1,0-1.4,0.2-1.4,1.4v6.5
			c0,1.2,0.4,1.3,1.4,1.4L24.2,19.4z"/>
	</g>
</g>
</svg>
