<svg xmlns="http://www.w3.org/2000/svg" width="20" height="20" viewBox="0 0 20 20">
  <g id="Group_50166" data-name="Group 50166" transform="translate(-1393 -360)">
    <g id="Group_48912" data-name="Group 48912" transform="translate(1390.106 353.507)">
      <g id="Group_50157" data-name="Group 50157" transform="translate(4.894 9.493)">
        <g id="noun-puzzle-7089209" transform="translate(4.224 5.749)">
          <path id="Path_80871" data-name="Path 80871" d="M75.755,98.4H66.713V92.77a.173.173,0,0,0-.242-.146,1.016,1.016,0,1,1-.011-1.8.173.173,0,0,0,.254-.141V89.148h1.425a1.227,1.227,0,0,0,.376,1.216,1.406,1.406,0,0,0,2.372-1.216h4.868Z" transform="translate(-64.979 -89.148)" fill-rule="evenodd"/>
        </g>
        <g id="noun-puzzle-7089209-2" data-name="noun-puzzle-7089209" transform="translate(5.597 4.015) rotate(90)">
          <g id="Path_80871-2" data-name="Path 80871" fill="none" fill-rule="evenodd">
            <path d="M10.985,5.6H1.6V3.934a.162.162,0,0,0-.223-.158A.992.992,0,0,1,0,2.8a.993.993,0,0,1,1.363-.982A.161.161,0,0,0,1.6,1.664V0H2.91a1.486,1.486,0,0,0,.347,1.32A1.314,1.314,0,0,0,5.442,0h5.543Z" stroke="none"/>
            <path d="M 10.48506355285645 5.09727668762207 L 10.48506355285645 0.4999969005584717 L 5.97117280960083 0.4999969005584717 C 5.940562725067139 0.8921385407447815 5.796647071838379 1.257270455360413 5.546943664550781 1.56296694278717 C 5.202653884887695 1.984456896781921 4.684553623199463 2.236086845397949 4.161023616790771 2.236086845397949 C 3.683383703231812 2.236086845397949 3.231573581695557 2.031186819076538 2.888813734054565 1.659146904945374 C 2.592346906661987 1.337349057197571 2.419026374816895 0.9330494403839111 2.383159399032593 0.4999969005584717 L 2.097613573074341 0.4999969005584717 L 2.097613573074341 1.663506865501404 C 2.097613573074341 2.03447699546814 1.802513718605042 2.336287021636963 1.439783692359924 2.336287021636963 C 1.335593700408936 2.336287021636963 1.230203628540039 2.310467004776001 1.134653687477112 2.261436939239502 C 1.095383644104004 2.241246938705444 1.049493670463562 2.231006860733032 0.9982537031173706 2.231006860733032 C 0.7913636565208435 2.231006860733032 0.5000036954879761 2.407116889953613 0.5000036954879761 2.798636913299561 C 0.5000036954879761 2.961606979370117 0.5566337108612061 3.110286951065063 0.6594637036323547 3.217276811599731 C 0.7492736577987671 3.310726881027222 0.8674936890602112 3.364306926727295 0.9838036894798279 3.364296913146973 C 1.043333649635315 3.36428689956665 1.102563738822937 3.350536823272705 1.159573674201965 3.323556900024414 C 1.247173666954041 3.282027006149292 1.340413689613342 3.260977029800415 1.436703681945801 3.260977029800415 C 1.800863742828369 3.260977029800415 2.097133636474609 3.562786817550659 2.097133636474609 3.933766841888428 L 2.097133636474609 5.09727668762207 L 10.48506355285645 5.09727668762207 M 10.98506355285645 5.59727668762207 C 10.98506355285645 5.59727668762207 5.744983673095703 5.59727668762207 1.597133636474609 5.59727668762207 L 1.597133636474609 3.933766841888428 C 1.597133636474609 3.810446739196777 1.478304028511047 3.725826501846313 1.373733639717102 3.775367021560669 C 0.7348732352256775 4.077725887298584 3.68377686754684e-06 3.573626518249512 3.68377686754684e-06 2.798636913299561 C 3.68377686754684e-06 1.955556869506836 0.8223437070846558 1.538646221160889 1.363263726234436 1.816756963729858 C 1.484953284263611 1.879186868667603 1.59761369228363 1.782187104225159 1.59761369228363 1.663506865501404 L 1.59761369228363 -3.086700417043176e-06 L 2.910013675689697 -3.086700417043176e-06 C 2.80971360206604 0.4922369122505188 2.937583684921265 0.9741469025611877 3.256543636322021 1.320356965065002 C 4.163023948669434 2.304307222366333 5.729723453521729 1.411686539649963 5.442173480987549 -3.086700417043176e-06 L 10.98506355285645 -3.086700417043176e-06 L 10.98506355285645 5.59727668762207 Z" stroke="none" fill="#000"/>
          </g>
        </g>
        <g id="noun-puzzle-7089209-3" data-name="noun-puzzle-7089209" transform="translate(6.03 6.814) rotate(-90)">
          <g id="Path_80871-3" data-name="Path 80871" fill="none" fill-rule="evenodd">
            <path d="M6.813,8.97h-5.2V3.934a.163.163,0,0,0-.225-.158A1,1,0,0,1,0,2.8a1,1,0,0,1,1.375-.982.162.162,0,0,0,.236-.153V0H2.936a1.477,1.477,0,0,0,.35,1.32A1.324,1.324,0,0,0,5.49,0H6.813Z" stroke="none"/>
            <path d="M 6.313462257385254 8.469937324523926 L 6.313462257385254 0.4999977052211761 L 6.019235610961914 0.4999977052211761 C 5.988585948944092 0.889545202255249 5.845401287078857 1.2525954246521 5.597082138061523 1.557127714157104 C 5.250411987304688 1.982267737388611 4.727241992950439 2.236087799072266 4.197602272033691 2.236087799072266 C 3.717832088470459 2.236087799072266 3.26372218132019 2.031757593154907 2.918922185897827 1.660737752914429 C 2.619563817977905 1.338628888130188 2.444585800170898 0.9337531328201294 2.408447742462158 0.4999977052211761 L 2.111662149429321 0.4999977052211761 L 2.111662149429321 1.663507699966431 C 2.111662149429321 2.034477710723877 1.815942049026489 2.3362877368927 1.452452063560486 2.3362877368927 C 1.347172141075134 2.3362877368927 1.244922041893005 2.311437606811523 1.148222088813782 2.262247800827026 C 1.107552051544189 2.241517782211304 1.060052037239075 2.231007814407349 1.007032036781311 2.231007814407349 C 0.7965020537376404 2.231007814407349 0.5000020861625671 2.407117605209351 0.5000020861625671 2.798637628555298 C 0.5000020861625671 2.960787773132324 0.5570321083068848 3.108907699584961 0.6605721116065979 3.215707778930664 C 0.752142071723938 3.310147762298584 0.8731120824813843 3.364307641983032 0.992452085018158 3.36429762840271 C 1.053752064704895 3.364287614822388 1.114642024040222 3.350297689437866 1.173152089118958 3.322847604751587 C 1.260512113571167 3.281797647476196 1.353432059288025 3.260977745056152 1.449342131614685 3.260977745056152 C 1.814282059669495 3.260977745056152 2.111181974411011 3.562787771224976 2.111181974411011 3.933757781982422 L 2.111181974411011 8.469937324523926 L 6.313462257385254 8.469937324523926 M 6.813462257385254 8.969937324523926 C 6.813462257385254 8.969937324523926 5.795482158660889 8.969937324523926 1.6111820936203 8.969937324523926 L 1.6111820936203 3.933757781982422 C 1.6111820936203 3.810447454452515 1.491302132606506 3.725828170776367 1.385812044143677 3.775367736816406 C 0.7413326501846313 4.077728271484375 2.082367018374498e-06 3.573627471923828 2.082367018374498e-06 2.798637628555298 C 2.082367018374498e-06 1.955557823181152 0.8295717239379883 1.538647770881653 1.3752521276474 1.816757678985596 C 1.498011827468872 1.879187822341919 1.611662030220032 1.782187819480896 1.611662030220032 1.663507699966431 L 1.611662030220032 -2.291412329213927e-06 L 2.935592174530029 -2.291412329213927e-06 C 2.834412097930908 0.4922377169132233 2.963412046432495 0.9741477370262146 3.285171985626221 1.32035768032074 C 4.199612140655518 2.30430793762207 5.780092239379883 1.411687731742859 5.4900221824646 -2.291412329213927e-06 L 6.813462257385254 -2.291412329213927e-06 L 6.813462257385254 8.969937324523926 Z" stroke="none" fill="#000"/>
          </g>
        </g>
        <g id="noun-puzzle-7089209-4" data-name="noun-puzzle-7089209" transform="translate(7.331 5.024) rotate(180)">
          <g id="Path_80871-4" data-name="Path 80871" fill="none" fill-rule="evenodd">
            <path d="M7.331,5.024h-5.6V3.531a.173.173,0,0,0-.242-.142A1.063,1.063,0,0,1,0,2.512a1.067,1.067,0,0,1,1.48-.881.173.173,0,0,0,.254-.138V0H3.159a1.177,1.177,0,0,0,.376,1.185c.984.883,2.685.082,2.372-1.185H7.331Z" stroke="none"/>
            <path d="M 6.831315040588379 4.52405834197998 L 6.831315040588379 0.4999982118606567 L 6.433147430419922 0.4999982118606567 C 6.397647857666016 0.7945031523704529 6.282366752624512 1.073451280593872 6.091434955596924 1.317118167877197 C 5.727775096893311 1.78121817111969 5.139064788818359 2.058298110961914 4.516634941101074 2.058298110961914 C 4.028144836425781 2.058298110961914 3.560864925384521 1.880348205566406 3.200874805450439 1.557238221168518 C 2.881106853485107 1.270227670669556 2.686630964279175 0.8980315327644348 2.636117458343506 0.4999982118606567 L 2.234144926071167 0.4999982118606567 L 2.234144926071167 1.49314820766449 C 2.234144926071167 1.854368209838867 1.932994842529297 2.148238182067871 1.562834858894348 2.148238182067871 C 1.467664957046509 2.148238182067871 1.374014854431152 2.128978252410889 1.284134864807129 2.090848207473755 C 1.227044939994812 2.06656813621521 1.157684922218323 2.053738117218018 1.083564877510071 2.053738117218018 C 0.8482248783111572 2.053738117218018 0.5000048875808716 2.199388265609741 0.5000048875808716 2.512028217315674 C 0.5000048875808716 2.659268140792847 0.5819149017333984 2.760648250579834 0.6506248712539673 2.819768190383911 C 0.8192054629325867 2.96481990814209 1.087778687477112 3.009664535522461 1.308824896812439 2.923148155212402 C 1.389034867286682 2.891738176345825 1.473364949226379 2.875818252563477 1.559484839439392 2.875818252563477 C 1.931214928627014 2.875818252563477 2.233634948730469 3.16968822479248 2.233634948730469 3.530908107757568 L 2.233634948730469 4.52405834197998 L 6.831315040588379 4.52405834197998 M 7.331315040588379 5.02405834197998 C 7.331315040588379 5.02405834197998 6.235964775085449 5.02405834197998 1.733634948730469 5.02405834197998 L 1.733634948730469 3.530908107757568 C 1.733634948730469 3.420217990875244 1.604644536972046 3.344269037246704 1.491134881973267 3.388728141784668 C 0.7976757287979126 3.660128355026245 4.897690359939588e-06 3.207648515701294 4.897689905192237e-06 2.512028217315674 C 4.897689905192237e-06 1.755288481712341 0.892614483833313 1.381078243255615 1.479774951934814 1.63070821762085 C 1.611864686012268 1.68673837184906 1.734144926071167 1.59967827796936 1.734144926071167 1.49314820766449 L 1.734144926071167 -1.782684307727322e-06 L 3.158715009689331 -1.782684307727322e-06 C 3.049844980239868 0.4418282210826874 3.188634872436523 0.8743882179260254 3.534854888916016 1.18513822555542 C 4.518804550170898 2.068318367004395 6.219394683837891 1.267118096351624 5.907274723052979 -1.782684307727322e-06 L 7.331315040588379 -1.782684307727322e-06 L 7.331315040588379 5.02405834197998 Z" stroke="none" fill="#000"/>
          </g>
        </g>
      </g>
    </g>
    <rect id="Rectangle_5435" data-name="Rectangle 5435" width="20" height="20" transform="translate(1393 360)" fill="none"/>
  </g>
</svg>
