<svg xmlns="http://www.w3.org/2000/svg" width="20" height="20" viewBox="0 0 20 20">
  <g id="Group_48932" data-name="Group 48932" transform="translate(-1418.58 -407.948)">
    <g id="Group_48912" data-name="Group 48912" transform="translate(1414.38 400.149)">
      <g id="Group_14273" data-name="Group 14273" transform="translate(7.586 7.95)">
        <path id="Path_80879" data-name="Path 80879" d="M342.525,288.444h-.331a.067.067,0,1,1,0-.132h.331a.067.067,0,1,1,0,.132m-.379.828a.079.079,0,0,1-.054.02.083.083,0,0,1-.056-.02l-.244-.211a.061.061,0,0,1,0-.094.085.085,0,0,1,.109,0l.245.211a.06.06,0,0,1,0,.093m-.659-.3a.379.379,0,0,0-.076.2c-.008.062-.011.123-.015.186a.058.058,0,0,1-.028.043h-.5a.057.057,0,0,1-.028-.043c-.005-.063-.008-.124-.016-.186a.385.385,0,0,0-.075-.2c-.058-.081-.117-.161-.178-.24a.683.683,0,0,1-.143-.347.63.63,0,0,1-.006-.094.511.511,0,0,1,.313-.462.9.9,0,0,1,.769,0,.511.511,0,0,1,.314.462.7.7,0,0,1-.006.094.679.679,0,0,1-.142.347c-.062.079-.122.16-.18.24m-.1.6h-.547v-.094h.547Zm0,.157h-.547v-.095h.547Zm-.987-.7-.245.209a.089.089,0,0,1-.056.019.09.09,0,0,1-.055-.019.062.062,0,0,1,0-.094l.248-.209a.085.085,0,0,1,.108,0,.059.059,0,0,1,0,.093m-.769-.7a.072.072,0,0,1,.076-.067h.494a.067.067,0,1,1,0,.132h-.494a.071.071,0,0,1-.076-.065m.452-.9a.089.089,0,0,1,.11,0l.217.187a.058.058,0,0,1,0,.094.082.082,0,0,1-.053.02.086.086,0,0,1-.056-.02l-.217-.186a.062.062,0,0,1,0-.095m.982-.288a.077.077,0,0,1,.154,0v.256a.078.078,0,0,1-.154,0Zm.79.508.218-.187a.085.085,0,0,1,.109,0,.059.059,0,0,1,0,.094l-.216.186a.088.088,0,0,1-.055.021.085.085,0,0,1-.056-.021.061.061,0,0,1,0-.093m-.974,10.394.018.09h.109v-8.232h-.019a.068.068,0,0,1,0-.135h.234a.069.069,0,0,1,0,.135H341.2v8.232h.11l.017-.09" transform="translate(-334.702 -279.158)"/>
        <path id="Path_8261" data-name="Path 8261" d="M355.679,266.662H345.612v1.062h.538v.638h8.993v-.638h.536Z" transform="translate(-344.229 -266.662)"/>
        <path id="Path_8262" data-name="Path 8262" d="M345.573,280.821l.011-.05h-7.769l.01.05a13.646,13.646,0,0,1-2.548,9.216s5.083,5.216,6.2,8.035l.018.083h.109c0-.025.2-1.058.193,0h.11l.017-.083c1.116-2.819,6.2-8.035,6.2-8.035a13.671,13.671,0,0,1-2.552-9.216" transform="translate(-335.277 -278.884)" fill="none" stroke="#000" stroke-width="0.5"/>
      </g>
    </g>
    <rect id="Rectangle_5436" data-name="Rectangle 5436" width="20" height="20" transform="translate(1418.58 407.948)" fill="none"/>
  </g>
</svg>
